<svg xmlns="http://www.w3.org/2000/svg" width="100" height="100" viewBox="0 0 100 100">
  
  <path fill="#ffffff" d="M55.613,31.216V1H100V31.216H55.613ZM87.243,15.054H78.756V8.622H74.8v6.432H66.1v3.027h8.7v6.973h3.954V18.081h8.487V15.054ZM1,1H45.387V31.216H1V1ZM13.388,18.081h8.7v6.973H26.04V18.081h8.487V15.054H26.04V8.622H22.086v6.432h-8.7v3.027ZM44.859,99S7.362,80.427,1.369,39.162H45.018ZM34.685,51.27H26.2V44.838H22.244V51.27h-8.7V54.3h8.7V61.27H26.2V54.3h8.487V51.27ZM55.773,99l-0.16-59.838h44.07C93.633,80.427,55.773,99,55.773,99ZM78.387,51.27V44.838H74.433V51.27h-8.7V54.3h8.7V61.27h3.954V54.3h8.487V51.27H78.387Z"/>
</svg>
